<svg viewBox="0 0 640 512" xmlns="http://www.w3.org/2000/svg"><path d="m64 96c0-35.3 28.7-64 64-64h384c35.3 0 64 28.7 64 64v256h-64v-256h-384v256h-64zm-64 307.2c0-10.6 8.6-19.2 19.2-19.2h601.6c10.6 0 19.2 8.6 19.2 19.2 0 42.4-34.4 76.8-76.8 76.8h-486.4c-42.4 0-76.8-34.4-76.8-76.8zm281-194.2-31 31 31 31c9.4 9.4 9.4 24.6 0 33.9s-24.6 9.4-33.9 0l-48-48c-9.4-9.4-9.4-24.6 0-33.9l48-48c9.4-9.4 24.6-9.4 33.9 0s9.4 24.6 0 33.9zm112-34 48 48c9.4 9.4 9.4 24.6 0 33.9l-48 48c-9.4 9.4-24.6 9.4-33.9 0s-9.4-24.6 0-33.9l31-31-31-31c-9.4-9.4-9.4-24.6 0-33.9s24.6-9.4 33.9 0z"/></svg>